<svg width="24" height="23.922" xmlns:xlink="http://www.w3.org/1999/xlink" xmlns="http://www.w3.org/2000/svg"><defs><linearGradient id="a"><stop offset="0" stop-color="#f60"/><stop offset="1" stop-color="#f60" stop-opacity="0"/></linearGradient><linearGradient xlink:href="#a" id="b" x1="12" y1="24" x2="12" y2="-50" gradientUnits="userSpaceOnUse"/><clipPath clipPathUnits="userSpaceOnUse" id="c"><path d="M9.786 47.792c-4.2-.711-7.78-3.786-9.098-7.813-.623-1.901-.592-1.07-.592-15.926 0-12.755.009-13.47.172-14.337.478-2.534 1.47-4.407 3.292-6.215C5.26 1.814 6.922.906 9.426.295c.586-.143 1.775-.16 14.04-.19C32.756.082 37.13.102 37.732.172c5.01.575 8.924 4.15 10.08 9.202l.204.89.033 13.059c.033 13.222.013 14.26-.3 15.605a11.686 11.686 0 0 1-4.33 6.656c-1.346 1.01-2.61 1.608-4.45 2.102l-.732.197-13.857.017c-11.362.014-13.99-.005-14.594-.108z" fill="none" stroke="#000" stroke-width="2" stroke-opacity=".078"/></clipPath></defs><rect width="24" height="24" x="12" y="12" ry="6.1" opacity=".89" fill="#fff" transform="translate(-12 -12)"/><rect width="24" height="24" x=".004" ry="5.9" fill="url(#b)"/><path d="M9.8 48C5.6 47 2 44 .69 40 .07 38 .1 39 .1 24c0-13 0-13 .17-14.3C.75 7.2 1.7 5.3 3.6 3.5 5.3 1.8 6.9.91 9.4.29 10 .15 11 .14 23 .11 33 .08 37 .1 38 .17c5 .58 9 4.13 10 9.23V39c-1 3-2 5-5 7-1 1-2 1-4 2H9.8Z" clip-path="url(#c)" transform="scale(.5)" fill="none" stroke="#000" stroke-width="4" stroke-opacity=".078"/><g stroke="#fff"><g stroke-width="100" fill="none" transform="matrix(.02 0 0 .02 9.2 3.8)"><path d="M-35 250v-30a180 180 0 0 1 355 0v220"/><circle cx="140" cy="550" r="210"/></g><circle fill="#fff" cx="12" cy="15" r="1.5" stroke-width=".017"/></g></svg>