<svg xmlns="http://www.w3.org/2000/svg" xmlns:xlink="http://www.w3.org/1999/xlink" height="23.922" width="24" version="1.1"><defs><linearGradient id="a"><stop offset="0" stop-color="purple" stop-opacity="1"/><stop offset="1" stop-color="purple" stop-opacity="0"/></linearGradient><linearGradient gradientTransform="translate(12.03 11.991) scale(.50037)" gradientUnits="userSpaceOnUse" y2="-72.985" x2="24.744" y1="47.453" x1="25.291" id="b" xlink:href="#a"/><clipPath id="c" clipPathUnits="userSpaceOnUse"><path d="m 9.7858527,47.792081 c -4.1992326,-0.71127 -7.7801843,-3.78628 -9.0980256,-7.81259 -0.62245022,-1.90172 -0.59157437,-1.07049 -0.59157437,-15.92622 0,-12.75526 0.008568,-13.46944 0.17201059,-14.33714 C 0.74556409,7.182161 1.7373564,5.309451 3.5600238,3.500591 5.2592757,1.814211 6.9216329,0.90561102 9.425738,0.29456102 c 0.586022,-0.14301 1.775375,-0.15906 14.039961,-0.18946 9.290873,-0.023 13.665395,-0.003 14.266179,0.0664 5.009525,0.57586 8.924468,4.14978998 10.080825,9.20274998 l 0.203629,0.8898 0.03257,13.05868 c 0.03298,13.22201 0.01297,14.26072 -0.300472,15.60521 -0.617666,2.64938 -2.168338,5.03364 -4.328906,6.656 -1.346327,1.01094 -2.611044,1.60841 -4.450415,2.10243 l -0.731724,0.19652 -13.857029,0.0171 c -11.362101,0.014 -13.98981,-0.005 -14.5945023,-0.10786 z" fill="none" fill-opacity="1" stroke="#000" stroke-width="2" stroke-miterlimit="4" stroke-dasharray="none" stroke-opacity=".078"/></clipPath></defs><path d="m 16.926739,35.904871 c -2.101173,-0.355899 -3.892976,-1.894544 -4.552385,-3.909191 -0.311456,-0.951565 -0.296006,-0.535642 -0.296006,-7.969014 0,-6.382358 0.0043,-6.739713 0.08607,-7.173884 0.238827,-1.267925 0.735091,-2.204974 1.6471,-3.110074 0.850256,-0.843815 1.682051,-1.298452 2.935031,-1.604204 0.293229,-0.07156 0.888346,-0.07959 7.025185,-0.0948 4.648881,-0.01151 6.837763,-0.0015 7.138378,0.03322 2.506619,0.288143 4.465542,2.076433 5.044149,4.604786 l 0.10189,0.44523 0.0163,6.53418 c 0.0165,6.615907 0.0065,7.135647 -0.150347,7.80839 -0.309062,1.325672 -1.084973,2.518686 -2.166058,3.330467 -0.673662,0.505845 -1.30649,0.804801 -2.226857,1.051995 l -0.366133,0.09833 -6.933651,0.0086 c -5.685262,0.007 -7.000091,-0.0025 -7.302661,-0.05397 z" fill="url(#b)" fill-opacity="1" stroke="none" stroke-width=".951" stroke-miterlimit="4" stroke-dasharray="none" stroke-opacity=".078" transform="translate(-12.078 -12.04)" display="inline"/><rect y="10" x="-6.9" height="14" width="14" transform="scale(1 .99) rotate(-45)" display="inline" opacity=".4" fill="#bdbdbd" fill-opacity="0" stroke="#fff" stroke-width="1.781" stroke-linecap="round" stroke-miterlimit="4" stroke-dasharray="none" stroke-opacity="1"/><path transform="scale(.5)" clip-path="url(#c)" d="M 9.8,48 C 5.6,47 2,44 0.69,40 0.07,38 0.1,39 0.1,24 0.1,11 0.1,11 0.27,9.7 0.75,7.2 1.7,5.3 3.6,3.5 5.3,1.8 6.9,0.91 9.4,0.29 10,0.15 11,0.14 23,0.11 33,0.08 37,0.1 38,0.17 43,0.75 47,4.3 48,9.4 V 10 23 c 0,14 0,15 0,16 -1,3 -2,5 -5,7 -1,1 -2,1 -4,2 H 38 24 C 13,48 10,48 9.8,48 Z" fill="none" fill-opacity="1" stroke="#000" stroke-width="4" stroke-miterlimit="4" stroke-dasharray="none" stroke-opacity=".078" display="inline"/><rect ry="3.147" y="5.8" x="4.056" height="11.902" width="6.293" fill="none" stroke="none" stroke-width=".137" stroke-miterlimit="4" stroke-dasharray="none" stroke-opacity=".635"/><path d="M 15,8 H 9.3 v 8 H 15" fill="none" stroke="#fff" stroke-width="2.6" stroke-linecap="round" stroke-linejoin="round" stroke-miterlimit="4" stroke-dasharray="none" stroke-opacity="1"/></svg>