<svg width="24" height="23.922" xmlns:xlink="http://www.w3.org/1999/xlink" xmlns="http://www.w3.org/2000/svg"><defs><linearGradient id="a"><stop style="stop-color:green;stop-opacity:1" offset="0"/><stop style="stop-color:green;stop-opacity:0" offset="1"/></linearGradient><linearGradient xlink:href="#a" id="b" x1="24.143" y1="35.064" x2="24" y2="-13" gradientUnits="userSpaceOnUse" gradientTransform="translate(.008)"/><clipPath clipPathUnits="userSpaceOnUse" id="c"><path d="M9.786 47.792c-4.2-.711-7.78-3.786-9.098-7.813-.623-1.901-.592-1.07-.592-15.926 0-12.755.009-13.47.172-14.337.478-2.534 1.47-4.407 3.292-6.215C5.26 1.814 6.922.906 9.426.295c.586-.143 1.775-.16 14.04-.19C32.756.082 37.13.102 37.732.172c5.01.575 8.924 4.15 10.08 9.202l.204.89.033 13.059c.033 13.222.013 14.26-.3 15.605a11.686 11.686 0 0 1-4.33 6.656c-1.346 1.01-2.61 1.608-4.45 2.102l-.732.197-13.857.017c-11.362.014-13.99-.005-14.594-.108z" style="fill:none;fill-opacity:1;stroke:#000;stroke-width:2;stroke-miterlimit:4;stroke-dasharray:none;stroke-opacity:.07843137"/></clipPath></defs><g style="display:inline" transform="translate(-12 -12)"><rect style="opacity:.89;fill:#fff;stroke-width:1.81;stroke-linecap:round;stroke-linejoin:round" width="24" height="24" x="12.004" y="12" ry="6.1"/></g><g style="display:inline"><path style="fill:url(#b);fill-opacity:1;stroke:none;stroke-width:.95;stroke-miterlimit:4;stroke-dasharray:none;stroke-opacity:.08" d="M16.934 35.905c-2.1-.356-3.893-1.895-4.552-3.91-.312-.95-.296-.535-.296-7.968 0-6.383.004-6.74.086-7.174.239-1.268.735-2.205 1.647-3.11.85-.844 1.682-1.299 2.935-1.604.293-.072.888-.08 7.025-.095 4.65-.012 6.838-.002 7.139.033 2.506.288 4.465 2.076 5.044 4.605l.102.445.016 6.534c.017 6.616.007 7.136-.15 7.809a5.847 5.847 0 0 1-2.166 3.33c-.674.506-1.307.805-2.227 1.052l-.366.098-6.934.009c-5.685.007-7-.003-7.303-.054z" transform="translate(-12.078 -12.04)"/></g><g style="display:inline"><path style="fill:none;fill-opacity:1;stroke:#000;stroke-width:4;stroke-miterlimit:4;stroke-dasharray:none;stroke-opacity:.0784314" d="M9.8 48C5.6 47 2 44 .69 40 .07 38 .1 39 .1 24c0-13 0-13 .17-14.3C.75 7.2 1.7 5.3 3.6 3.5 5.3 1.8 6.9.91 9.4.29 10 .15 11 .14 23 .11 33 .08 37 .1 38 .17c5 .58 9 4.13 10 9.23V39c-1 3-2 5-5 7-1 1-2 1-4 2H9.8Z" clip-path="url(#c)" transform="scale(.5)"/></g><g style="display:inline"><ellipse style="fill:#fff;stroke:#1960a4;stroke-width:0;stroke-linecap:round;stroke-linejoin:round;stroke-dasharray:none" cx="12" cy="9.9" rx="3.3" ry="3.9"/><path style="fill:#fff;stroke:#1960a4;stroke-width:0;stroke-linecap:round;stroke-linejoin:round;stroke-dasharray:none" d="M-6-18a6 4.1 0 0 1-3 3 6 4.1 0 0 1-6 0 6 4.1 0 0 1-3-3" transform="scale(-1)"/></g></svg>